<?xml version="1.0" encoding="utf-8"?>
<svg xmlns="http://www.w3.org/2000/svg" xmlns:xlink="http://www.w3.org/1999/xlink" width="600" height="400" viewBox="0 0 2400 1600">
<defs>
  <clipPath id="clip650">
    <rect x="0" y="0" width="2400" height="1600"/>
  </clipPath>
</defs>
<path clip-path="url(#clip650)" d="
M0 1600 L2400 1600 L2400 0 L0 0  Z
  " fill="#ffffff" fill-rule="evenodd" fill-opacity="1"/>
<defs>
  <clipPath id="clip651">
    <rect x="480" y="0" width="1681" height="1600"/>
  </clipPath>
</defs>
<path clip-path="url(#clip650)" d="
M148.334 1486.45 L2352.76 1486.45 L2352.76 47.2441 L148.334 47.2441  Z
  " fill="#ffffff" fill-rule="evenodd" fill-opacity="1"/>
<defs>
  <clipPath id="clip652">
    <rect x="148" y="47" width="2205" height="1440"/>
  </clipPath>
</defs>
<polyline clip-path="url(#clip652)" style="stroke:#000000; stroke-width:2; stroke-opacity:0.1; fill:none" points="
  441.795,1486.45 441.795,47.2441 
  "/>
<polyline clip-path="url(#clip652)" style="stroke:#000000; stroke-width:2; stroke-opacity:0.1; fill:none" points="
  903.938,1486.45 903.938,47.2441 
  "/>
<polyline clip-path="url(#clip652)" style="stroke:#000000; stroke-width:2; stroke-opacity:0.1; fill:none" points="
  1366.08,1486.45 1366.08,47.2441 
  "/>
<polyline clip-path="url(#clip652)" style="stroke:#000000; stroke-width:2; stroke-opacity:0.1; fill:none" points="
  1828.22,1486.45 1828.22,47.2441 
  "/>
<polyline clip-path="url(#clip652)" style="stroke:#000000; stroke-width:2; stroke-opacity:0.1; fill:none" points="
  2290.37,1486.45 2290.37,47.2441 
  "/>
<polyline clip-path="url(#clip652)" style="stroke:#000000; stroke-width:2; stroke-opacity:0.1; fill:none" points="
  148.334,1346.61 2352.76,1346.61 
  "/>
<polyline clip-path="url(#clip652)" style="stroke:#000000; stroke-width:2; stroke-opacity:0.1; fill:none" points="
  148.334,1150.73 2352.76,1150.73 
  "/>
<polyline clip-path="url(#clip652)" style="stroke:#000000; stroke-width:2; stroke-opacity:0.1; fill:none" points="
  148.334,954.848 2352.76,954.848 
  "/>
<polyline clip-path="url(#clip652)" style="stroke:#000000; stroke-width:2; stroke-opacity:0.1; fill:none" points="
  148.334,758.967 2352.76,758.967 
  "/>
<polyline clip-path="url(#clip652)" style="stroke:#000000; stroke-width:2; stroke-opacity:0.1; fill:none" points="
  148.334,563.086 2352.76,563.086 
  "/>
<polyline clip-path="url(#clip652)" style="stroke:#000000; stroke-width:2; stroke-opacity:0.1; fill:none" points="
  148.334,367.205 2352.76,367.205 
  "/>
<polyline clip-path="url(#clip652)" style="stroke:#000000; stroke-width:2; stroke-opacity:0.1; fill:none" points="
  148.334,171.324 2352.76,171.324 
  "/>
<polyline clip-path="url(#clip650)" style="stroke:#000000; stroke-width:4; stroke-opacity:1; fill:none" points="
  148.334,1486.45 2352.76,1486.45 
  "/>
<polyline clip-path="url(#clip650)" style="stroke:#000000; stroke-width:4; stroke-opacity:1; fill:none" points="
  148.334,1486.45 148.334,47.2441 
  "/>
<polyline clip-path="url(#clip650)" style="stroke:#000000; stroke-width:4; stroke-opacity:1; fill:none" points="
  441.795,1486.45 441.795,1469.18 
  "/>
<polyline clip-path="url(#clip650)" style="stroke:#000000; stroke-width:4; stroke-opacity:1; fill:none" points="
  903.938,1486.45 903.938,1469.18 
  "/>
<polyline clip-path="url(#clip650)" style="stroke:#000000; stroke-width:4; stroke-opacity:1; fill:none" points="
  1366.08,1486.45 1366.08,1469.18 
  "/>
<polyline clip-path="url(#clip650)" style="stroke:#000000; stroke-width:4; stroke-opacity:1; fill:none" points="
  1828.22,1486.45 1828.22,1469.18 
  "/>
<polyline clip-path="url(#clip650)" style="stroke:#000000; stroke-width:4; stroke-opacity:1; fill:none" points="
  2290.37,1486.45 2290.37,1469.18 
  "/>
<polyline clip-path="url(#clip650)" style="stroke:#000000; stroke-width:4; stroke-opacity:1; fill:none" points="
  148.334,1346.61 174.787,1346.61 
  "/>
<polyline clip-path="url(#clip650)" style="stroke:#000000; stroke-width:4; stroke-opacity:1; fill:none" points="
  148.334,1150.73 174.787,1150.73 
  "/>
<polyline clip-path="url(#clip650)" style="stroke:#000000; stroke-width:4; stroke-opacity:1; fill:none" points="
  148.334,954.848 174.787,954.848 
  "/>
<polyline clip-path="url(#clip650)" style="stroke:#000000; stroke-width:4; stroke-opacity:1; fill:none" points="
  148.334,758.967 174.787,758.967 
  "/>
<polyline clip-path="url(#clip650)" style="stroke:#000000; stroke-width:4; stroke-opacity:1; fill:none" points="
  148.334,563.086 174.787,563.086 
  "/>
<polyline clip-path="url(#clip650)" style="stroke:#000000; stroke-width:4; stroke-opacity:1; fill:none" points="
  148.334,367.205 174.787,367.205 
  "/>
<polyline clip-path="url(#clip650)" style="stroke:#000000; stroke-width:4; stroke-opacity:1; fill:none" points="
  148.334,171.324 174.787,171.324 
  "/>
<path clip-path="url(#clip650)" d="M 0 0 M436.448 1535.98 L452.767 1535.98 L452.767 1539.92 L430.823 1539.92 L430.823 1535.98 Q433.485 1533.23 438.068 1528.6 Q442.675 1523.95 443.855 1522.61 Q446.101 1520.08 446.98 1518.35 Q447.883 1516.59 447.883 1514.9 Q447.883 1512.14 445.939 1510.41 Q444.017 1508.67 440.915 1508.67 Q438.716 1508.67 436.263 1509.43 Q433.832 1510.2 431.054 1511.75 L431.054 1507.03 Q433.878 1505.89 436.332 1505.31 Q438.786 1504.73 440.823 1504.73 Q446.193 1504.73 449.388 1507.42 Q452.582 1510.11 452.582 1514.6 Q452.582 1516.73 451.772 1518.65 Q450.985 1520.54 448.878 1523.14 Q448.3 1523.81 445.198 1527.03 Q442.096 1530.22 436.448 1535.98 Z" fill="#000000" fill-rule="evenodd" fill-opacity="1" /><path clip-path="url(#clip650)" d="M 0 0 M906.947 1509.43 L895.142 1527.88 L906.947 1527.88 L906.947 1509.43 M905.72 1505.36 L911.6 1505.36 L911.6 1527.88 L916.531 1527.88 L916.531 1531.77 L911.6 1531.77 L911.6 1539.92 L906.947 1539.92 L906.947 1531.77 L891.345 1531.77 L891.345 1527.26 L905.72 1505.36 Z" fill="#000000" fill-rule="evenodd" fill-opacity="1" /><path clip-path="url(#clip650)" d="M 0 0 M1366.49 1520.78 Q1363.34 1520.78 1361.49 1522.93 Q1359.66 1525.08 1359.66 1528.83 Q1359.66 1532.56 1361.49 1534.73 Q1363.34 1536.89 1366.49 1536.89 Q1369.63 1536.89 1371.46 1534.73 Q1373.31 1532.56 1373.31 1528.83 Q1373.31 1525.08 1371.46 1522.93 Q1369.63 1520.78 1366.49 1520.78 M1375.77 1506.12 L1375.77 1510.38 Q1374.01 1509.55 1372.2 1509.11 Q1370.42 1508.67 1368.66 1508.67 Q1364.03 1508.67 1361.58 1511.8 Q1359.15 1514.92 1358.8 1521.24 Q1360.17 1519.23 1362.23 1518.16 Q1364.29 1517.07 1366.76 1517.07 Q1371.97 1517.07 1374.98 1520.24 Q1378.01 1523.39 1378.01 1528.83 Q1378.01 1534.16 1374.87 1537.37 Q1371.72 1540.59 1366.49 1540.59 Q1360.49 1540.59 1357.32 1536.01 Q1354.15 1531.4 1354.15 1522.67 Q1354.15 1514.48 1358.04 1509.62 Q1361.93 1504.73 1368.48 1504.73 Q1370.24 1504.73 1372.02 1505.08 Q1373.82 1505.43 1375.77 1506.12 Z" fill="#000000" fill-rule="evenodd" fill-opacity="1" /><path clip-path="url(#clip650)" d="M 0 0 M1828.22 1523.51 Q1824.89 1523.51 1822.97 1525.29 Q1821.07 1527.07 1821.07 1530.2 Q1821.07 1533.32 1822.97 1535.11 Q1824.89 1536.89 1828.22 1536.89 Q1831.56 1536.89 1833.48 1535.11 Q1835.4 1533.3 1835.4 1530.2 Q1835.4 1527.07 1833.48 1525.29 Q1831.58 1523.51 1828.22 1523.51 M1823.55 1521.52 Q1820.54 1520.78 1818.85 1518.72 Q1817.18 1516.66 1817.18 1513.69 Q1817.18 1509.55 1820.12 1507.14 Q1823.08 1504.73 1828.22 1504.73 Q1833.39 1504.73 1836.33 1507.14 Q1839.27 1509.55 1839.27 1513.69 Q1839.27 1516.66 1837.58 1518.72 Q1835.91 1520.78 1832.92 1521.52 Q1836.3 1522.3 1838.18 1524.6 Q1840.08 1526.89 1840.08 1530.2 Q1840.08 1535.22 1837 1537.91 Q1833.94 1540.59 1828.22 1540.59 Q1822.51 1540.59 1819.43 1537.91 Q1816.37 1535.22 1816.37 1530.2 Q1816.37 1526.89 1818.27 1524.6 Q1820.17 1522.3 1823.55 1521.52 M1821.83 1514.13 Q1821.83 1516.82 1823.5 1518.32 Q1825.19 1519.83 1828.22 1519.83 Q1831.23 1519.83 1832.92 1518.32 Q1834.64 1516.82 1834.64 1514.13 Q1834.64 1511.45 1832.92 1509.94 Q1831.23 1508.44 1828.22 1508.44 Q1825.19 1508.44 1823.5 1509.94 Q1821.83 1511.45 1821.83 1514.13 Z" fill="#000000" fill-rule="evenodd" fill-opacity="1" /><path clip-path="url(#clip650)" d="M 0 0 M2267.24 1535.98 L2274.88 1535.98 L2274.88 1509.62 L2266.57 1511.29 L2266.57 1507.03 L2274.83 1505.36 L2279.51 1505.36 L2279.51 1535.98 L2287.15 1535.98 L2287.15 1539.92 L2267.24 1539.92 L2267.24 1535.98 Z" fill="#000000" fill-rule="evenodd" fill-opacity="1" /><path clip-path="url(#clip650)" d="M 0 0 M2302.22 1508.44 Q2298.61 1508.44 2296.78 1512 Q2294.97 1515.55 2294.97 1522.67 Q2294.97 1529.78 2296.78 1533.35 Q2298.61 1536.89 2302.22 1536.89 Q2305.85 1536.89 2307.66 1533.35 Q2309.49 1529.78 2309.49 1522.67 Q2309.49 1515.55 2307.66 1512 Q2305.85 1508.44 2302.22 1508.44 M2302.22 1504.73 Q2308.03 1504.73 2311.08 1509.34 Q2314.16 1513.92 2314.16 1522.67 Q2314.16 1531.4 2311.08 1536.01 Q2308.03 1540.59 2302.22 1540.59 Q2296.41 1540.59 2293.33 1536.01 Q2290.27 1531.4 2290.27 1522.67 Q2290.27 1513.92 2293.33 1509.34 Q2296.41 1504.73 2302.22 1504.73 Z" fill="#000000" fill-rule="evenodd" fill-opacity="1" /><path clip-path="url(#clip650)" d="M 0 0 M77.0198 1332.41 Q73.4087 1332.41 71.58 1335.97 Q69.7745 1339.52 69.7745 1346.65 Q69.7745 1353.75 71.58 1357.32 Q73.4087 1360.86 77.0198 1360.86 Q80.6541 1360.86 82.4596 1357.32 Q84.2883 1353.75 84.2883 1346.65 Q84.2883 1339.52 82.4596 1335.97 Q80.6541 1332.41 77.0198 1332.41 M77.0198 1328.71 Q82.83 1328.71 85.8855 1333.31 Q88.9642 1337.9 88.9642 1346.65 Q88.9642 1355.37 85.8855 1359.98 Q82.83 1364.56 77.0198 1364.56 Q71.2097 1364.56 68.131 1359.98 Q65.0754 1355.37 65.0754 1346.65 Q65.0754 1337.9 68.131 1333.31 Q71.2097 1328.71 77.0198 1328.71 Z" fill="#000000" fill-rule="evenodd" fill-opacity="1" /><path clip-path="url(#clip650)" d="M 0 0 M94.0336 1358.01 L98.9179 1358.01 L98.9179 1363.89 L94.0336 1363.89 L94.0336 1358.01 Z" fill="#000000" fill-rule="evenodd" fill-opacity="1" /><path clip-path="url(#clip650)" d="M 0 0 M108.015 1359.96 L124.334 1359.96 L124.334 1363.89 L102.39 1363.89 L102.39 1359.96 Q105.052 1357.2 109.635 1352.57 Q114.242 1347.92 115.422 1346.58 Q117.668 1344.05 118.547 1342.32 Q119.45 1340.56 119.45 1338.87 Q119.45 1336.11 117.506 1334.38 Q115.584 1332.64 112.483 1332.64 Q110.284 1332.64 107.83 1333.4 Q105.399 1334.17 102.622 1335.72 L102.622 1331 Q105.446 1329.86 107.899 1329.28 Q110.353 1328.71 112.39 1328.71 Q117.76 1328.71 120.955 1331.39 Q124.149 1334.08 124.149 1338.57 Q124.149 1340.7 123.339 1342.62 Q122.552 1344.52 120.446 1347.11 Q119.867 1347.78 116.765 1351 Q113.663 1354.19 108.015 1359.96 Z" fill="#000000" fill-rule="evenodd" fill-opacity="1" /><path clip-path="url(#clip650)" d="M 0 0 M76.0708 1136.53 Q72.4597 1136.53 70.631 1140.09 Q68.8254 1143.63 68.8254 1150.76 Q68.8254 1157.87 70.631 1161.44 Q72.4597 1164.98 76.0708 1164.98 Q79.705 1164.98 81.5105 1161.44 Q83.3392 1157.87 83.3392 1150.76 Q83.3392 1143.63 81.5105 1140.09 Q79.705 1136.53 76.0708 1136.53 M76.0708 1132.82 Q81.8809 1132.82 84.9365 1137.43 Q88.0151 1142.01 88.0151 1150.76 Q88.0151 1159.49 84.9365 1164.1 Q81.8809 1168.68 76.0708 1168.68 Q70.2606 1168.68 67.1819 1164.1 Q64.1264 1159.49 64.1264 1150.76 Q64.1264 1142.01 67.1819 1137.43 Q70.2606 1132.82 76.0708 1132.82 Z" fill="#000000" fill-rule="evenodd" fill-opacity="1" /><path clip-path="url(#clip650)" d="M 0 0 M93.0846 1162.13 L97.9688 1162.13 L97.9688 1168.01 L93.0846 1168.01 L93.0846 1162.13 Z" fill="#000000" fill-rule="evenodd" fill-opacity="1" /><path clip-path="url(#clip650)" d="M 0 0 M117.205 1149.38 Q120.561 1150.09 122.436 1152.36 Q124.334 1154.63 124.334 1157.96 Q124.334 1163.08 120.816 1165.88 Q117.297 1168.68 110.816 1168.68 Q108.64 1168.68 106.325 1168.24 Q104.034 1167.82 101.58 1166.97 L101.58 1162.45 Q103.524 1163.59 105.839 1164.17 Q108.154 1164.75 110.677 1164.75 Q115.075 1164.75 117.367 1163.01 Q119.682 1161.27 119.682 1157.96 Q119.682 1154.91 117.529 1153.19 Q115.399 1151.46 111.58 1151.46 L107.552 1151.46 L107.552 1147.62 L111.765 1147.62 Q115.214 1147.62 117.043 1146.25 Q118.871 1144.86 118.871 1142.27 Q118.871 1139.61 116.973 1138.19 Q115.098 1136.76 111.58 1136.76 Q109.659 1136.76 107.459 1137.18 Q105.26 1137.59 102.622 1138.47 L102.622 1134.31 Q105.284 1133.57 107.598 1133.19 Q109.936 1132.82 111.996 1132.82 Q117.321 1132.82 120.422 1135.25 Q123.524 1137.66 123.524 1141.78 Q123.524 1144.65 121.881 1146.64 Q120.237 1148.61 117.205 1149.38 Z" fill="#000000" fill-rule="evenodd" fill-opacity="1" /><path clip-path="url(#clip650)" d="M 0 0 M74.9365 940.647 Q71.3254 940.647 69.4967 944.212 Q67.6912 947.753 67.6912 954.883 Q67.6912 961.989 69.4967 965.554 Q71.3254 969.096 74.9365 969.096 Q78.5707 969.096 80.3763 965.554 Q82.205 961.989 82.205 954.883 Q82.205 947.753 80.3763 944.212 Q78.5707 940.647 74.9365 940.647 M74.9365 936.943 Q80.7467 936.943 83.8022 941.55 Q86.8809 946.133 86.8809 954.883 Q86.8809 963.61 83.8022 968.216 Q80.7467 972.8 74.9365 972.8 Q69.1264 972.8 66.0477 968.216 Q62.9921 963.61 62.9921 954.883 Q62.9921 946.133 66.0477 941.55 Q69.1264 936.943 74.9365 936.943 Z" fill="#000000" fill-rule="evenodd" fill-opacity="1" /><path clip-path="url(#clip650)" d="M 0 0 M91.9503 966.249 L96.8345 966.249 L96.8345 972.128 L91.9503 972.128 L91.9503 966.249 Z" fill="#000000" fill-rule="evenodd" fill-opacity="1" /><path clip-path="url(#clip650)" d="M 0 0 M114.751 941.642 L102.946 960.091 L114.751 960.091 L114.751 941.642 M113.524 937.568 L119.404 937.568 L119.404 960.091 L124.334 960.091 L124.334 963.98 L119.404 963.98 L119.404 972.128 L114.751 972.128 L114.751 963.98 L99.1493 963.98 L99.1493 959.466 L113.524 937.568 Z" fill="#000000" fill-rule="evenodd" fill-opacity="1" /><path clip-path="url(#clip650)" d="M 0 0 M76.418 744.766 Q72.8069 744.766 70.9782 748.331 Q69.1726 751.872 69.1726 759.002 Q69.1726 766.108 70.9782 769.673 Q72.8069 773.215 76.418 773.215 Q80.0522 773.215 81.8578 769.673 Q83.6865 766.108 83.6865 759.002 Q83.6865 751.872 81.8578 748.331 Q80.0522 744.766 76.418 744.766 M76.418 741.062 Q82.2281 741.062 85.2837 745.669 Q88.3624 750.252 88.3624 759.002 Q88.3624 767.729 85.2837 772.335 Q82.2281 776.918 76.418 776.918 Q70.6078 776.918 67.5291 772.335 Q64.4736 767.729 64.4736 759.002 Q64.4736 750.252 67.5291 745.669 Q70.6078 741.062 76.418 741.062 Z" fill="#000000" fill-rule="evenodd" fill-opacity="1" /><path clip-path="url(#clip650)" d="M 0 0 M93.4318 770.368 L98.316 770.368 L98.316 776.247 L93.4318 776.247 L93.4318 770.368 Z" fill="#000000" fill-rule="evenodd" fill-opacity="1" /><path clip-path="url(#clip650)" d="M 0 0 M103.432 741.687 L121.788 741.687 L121.788 745.622 L107.714 745.622 L107.714 754.095 Q108.733 753.747 109.751 753.585 Q110.77 753.4 111.788 753.4 Q117.575 753.4 120.955 756.571 Q124.334 759.743 124.334 765.159 Q124.334 770.738 120.862 773.84 Q117.39 776.918 111.071 776.918 Q108.895 776.918 106.626 776.548 Q104.381 776.178 101.973 775.437 L101.973 770.738 Q104.057 771.872 106.279 772.428 Q108.501 772.983 110.978 772.983 Q114.983 772.983 117.321 770.877 Q119.658 768.77 119.658 765.159 Q119.658 761.548 117.321 759.442 Q114.983 757.335 110.978 757.335 Q109.103 757.335 107.228 757.752 Q105.376 758.169 103.432 759.048 L103.432 741.687 Z" fill="#000000" fill-rule="evenodd" fill-opacity="1" /><path clip-path="url(#clip650)" d="M 0 0 M75.2606 548.885 Q71.6495 548.885 69.8208 552.45 Q68.0152 555.991 68.0152 563.121 Q68.0152 570.227 69.8208 573.792 Q71.6495 577.334 75.2606 577.334 Q78.8948 577.334 80.7004 573.792 Q82.5291 570.227 82.5291 563.121 Q82.5291 555.991 80.7004 552.45 Q78.8948 548.885 75.2606 548.885 M75.2606 545.181 Q81.0707 545.181 84.1263 549.788 Q87.205 554.371 87.205 563.121 Q87.205 571.848 84.1263 576.454 Q81.0707 581.037 75.2606 581.037 Q69.4504 581.037 66.3717 576.454 Q63.3162 571.848 63.3162 563.121 Q63.3162 554.371 66.3717 549.788 Q69.4504 545.181 75.2606 545.181 Z" fill="#000000" fill-rule="evenodd" fill-opacity="1" /><path clip-path="url(#clip650)" d="M 0 0 M92.2744 574.486 L97.1586 574.486 L97.1586 580.366 L92.2744 580.366 L92.2744 574.486 Z" fill="#000000" fill-rule="evenodd" fill-opacity="1" /><path clip-path="url(#clip650)" d="M 0 0 M112.807 561.223 Q109.659 561.223 107.807 563.375 Q105.978 565.528 105.978 569.278 Q105.978 573.005 107.807 575.181 Q109.659 577.334 112.807 577.334 Q115.955 577.334 117.783 575.181 Q119.635 573.005 119.635 569.278 Q119.635 565.528 117.783 563.375 Q115.955 561.223 112.807 561.223 M122.089 546.57 L122.089 550.829 Q120.33 549.996 118.524 549.556 Q116.742 549.116 114.983 549.116 Q110.353 549.116 107.899 552.241 Q105.469 555.366 105.122 561.686 Q106.487 559.672 108.547 558.607 Q110.608 557.519 113.084 557.519 Q118.293 557.519 121.302 560.69 Q124.334 563.838 124.334 569.278 Q124.334 574.602 121.186 577.82 Q118.038 581.037 112.807 581.037 Q106.811 581.037 103.64 576.454 Q100.469 571.848 100.469 563.121 Q100.469 554.926 104.358 550.065 Q108.247 545.181 114.797 545.181 Q116.557 545.181 118.339 545.528 Q120.145 545.875 122.089 546.57 Z" fill="#000000" fill-rule="evenodd" fill-opacity="1" /><path clip-path="url(#clip650)" d="M 0 0 M76.3254 353.004 Q72.7143 353.004 70.8856 356.568 Q69.0801 360.11 69.0801 367.24 Q69.0801 374.346 70.8856 377.911 Q72.7143 381.453 76.3254 381.453 Q79.9596 381.453 81.7652 377.911 Q83.5939 374.346 83.5939 367.24 Q83.5939 360.11 81.7652 356.568 Q79.9596 353.004 76.3254 353.004 M76.3254 349.3 Q82.1355 349.3 85.1911 353.906 Q88.2698 358.49 88.2698 367.24 Q88.2698 375.966 85.1911 380.573 Q82.1355 385.156 76.3254 385.156 Q70.5152 385.156 67.4365 380.573 Q64.381 375.966 64.381 367.24 Q64.381 358.49 67.4365 353.906 Q70.5152 349.3 76.3254 349.3 Z" fill="#000000" fill-rule="evenodd" fill-opacity="1" /><path clip-path="url(#clip650)" d="M 0 0 M93.3392 378.605 L98.2234 378.605 L98.2234 384.485 L93.3392 384.485 L93.3392 378.605 Z" fill="#000000" fill-rule="evenodd" fill-opacity="1" /><path clip-path="url(#clip650)" d="M 0 0 M102.112 349.925 L124.334 349.925 L124.334 351.916 L111.788 384.485 L106.904 384.485 L118.709 353.86 L102.112 353.86 L102.112 349.925 Z" fill="#000000" fill-rule="evenodd" fill-opacity="1" /><path clip-path="url(#clip650)" d="M 0 0 M75.5152 157.122 Q71.9041 157.122 70.0754 160.687 Q68.2699 164.229 68.2699 171.359 Q68.2699 178.465 70.0754 182.03 Q71.9041 185.571 75.5152 185.571 Q79.1494 185.571 80.955 182.03 Q82.7837 178.465 82.7837 171.359 Q82.7837 164.229 80.955 160.687 Q79.1494 157.122 75.5152 157.122 M75.5152 153.419 Q81.3254 153.419 84.3809 158.025 Q87.4596 162.609 87.4596 171.359 Q87.4596 180.085 84.3809 184.692 Q81.3254 189.275 75.5152 189.275 Q69.7051 189.275 66.6264 184.692 Q63.5708 180.085 63.5708 171.359 Q63.5708 162.609 66.6264 158.025 Q69.7051 153.419 75.5152 153.419 Z" fill="#000000" fill-rule="evenodd" fill-opacity="1" /><path clip-path="url(#clip650)" d="M 0 0 M92.529 182.724 L97.4132 182.724 L97.4132 188.604 L92.529 188.604 L92.529 182.724 Z" fill="#000000" fill-rule="evenodd" fill-opacity="1" /><path clip-path="url(#clip650)" d="M 0 0 M112.483 172.192 Q109.149 172.192 107.228 173.974 Q105.33 175.757 105.33 178.882 Q105.33 182.007 107.228 183.789 Q109.149 185.571 112.483 185.571 Q115.816 185.571 117.737 183.789 Q119.658 181.983 119.658 178.882 Q119.658 175.757 117.737 173.974 Q115.839 172.192 112.483 172.192 M107.807 170.201 Q104.797 169.46 103.108 167.4 Q101.441 165.34 101.441 162.377 Q101.441 158.234 104.381 155.826 Q107.344 153.419 112.483 153.419 Q117.645 153.419 120.584 155.826 Q123.524 158.234 123.524 162.377 Q123.524 165.34 121.834 167.4 Q120.168 169.46 117.182 170.201 Q120.561 170.988 122.436 173.28 Q124.334 175.571 124.334 178.882 Q124.334 183.905 121.256 186.59 Q118.2 189.275 112.483 189.275 Q106.765 189.275 103.686 186.59 Q100.631 183.905 100.631 178.882 Q100.631 175.571 102.529 173.28 Q104.427 170.988 107.807 170.201 M106.094 162.817 Q106.094 165.502 107.76 167.007 Q109.45 168.511 112.483 168.511 Q115.492 168.511 117.182 167.007 Q118.895 165.502 118.895 162.817 Q118.895 160.132 117.182 158.627 Q115.492 157.122 112.483 157.122 Q109.45 157.122 107.76 158.627 Q106.094 160.132 106.094 162.817 Z" fill="#000000" fill-rule="evenodd" fill-opacity="1" /><polyline clip-path="url(#clip652)" style="stroke:#009af9; stroke-width:4; stroke-opacity:1; fill:none" points="
  210.724,776.106 441.795,1086.39 672.867,87.9763 903.938,1445.72 1135.01,758.604 1366.08,1085.32 1597.15,608.226 1828.22,786.937 2059.3,1439.79 2290.37,772.354 
  
  "/>
<path clip-path="url(#clip650)" d="
M1983.32 216.178 L2279.28 216.178 L2279.28 95.2176 L1983.32 95.2176  Z
  " fill="#ffffff" fill-rule="evenodd" fill-opacity="1"/>
<polyline clip-path="url(#clip650)" style="stroke:#000000; stroke-width:4; stroke-opacity:1; fill:none" points="
  1983.32,216.178 2279.28,216.178 2279.28,95.2176 1983.32,95.2176 1983.32,216.178 
  "/>
<polyline clip-path="url(#clip650)" style="stroke:#009af9; stroke-width:4; stroke-opacity:1; fill:none" points="
  2007.81,155.698 2154.78,155.698 
  "/>
<path clip-path="url(#clip650)" d="M 0 0 M2193.11 175.385 Q2191.31 180.015 2189.59 181.427 Q2187.88 182.839 2185.01 182.839 L2181.61 182.839 L2181.61 179.274 L2184.11 179.274 Q2185.87 179.274 2186.84 178.44 Q2187.81 177.607 2188.99 174.505 L2189.76 172.561 L2179.27 147.052 L2183.78 147.052 L2191.89 167.329 L2199.99 147.052 L2204.5 147.052 L2193.11 175.385 Z" fill="#000000" fill-rule="evenodd" fill-opacity="1" /><path clip-path="url(#clip650)" d="M 0 0 M2210.38 169.042 L2218.02 169.042 L2218.02 142.677 L2209.71 144.343 L2209.71 140.084 L2217.97 138.418 L2222.65 138.418 L2222.65 169.042 L2230.29 169.042 L2230.29 172.978 L2210.38 172.978 L2210.38 169.042 Z" fill="#000000" fill-rule="evenodd" fill-opacity="1" /></svg>
